<svg width="40" height="40" viewBox="0 0 40 40" fill="none" xmlns="http://www.w3.org/2000/svg">
<g id="date_range_24px" opacity="0.48">
<path id="icon/action/date_range_24px" fill-rule="evenodd" clip-rule="evenodd" d="M31.6667 36.6667C33.5 36.6667 35 35.1667 35 33.3333V10C35 8.16668 33.5 6.66668 31.6667 6.66668H30V3.33334H26.6667V6.66668H13.3333V3.33334H10V6.66668H8.33333C6.48333 6.66668 5.01667 8.16668 5.01667 10L5 33.3333C5 35.1667 6.48333 36.6667 8.33333 36.6667H31.6667ZM15 21.6667V18.3333H11.6667V21.6667H15ZM8.33333 13.3333H31.6667V10H8.33333V13.3333ZM31.6667 16.6667V33.3333H8.33333V16.6667H31.6667ZM28.3333 21.6667V18.3333H25V21.6667H28.3333ZM21.6667 21.6667H18.3333V18.3333H21.6667V21.6667Z" fill="#1A96DB" fill-opacity="0.5"/>
</g>
</svg>
