<svg width="70" height="49" viewBox="0 0 70 49" fill="none" xmlns="http://www.w3.org/2000/svg">
<g clip-path="url(#clip0)">
<path fill-rule="evenodd" clip-rule="evenodd" d="M0 26.1462C0 21.0815 4.18126 16.9002 9.246 16.9002C11.0815 16.9002 12.3686 17.6618 13.9909 17.6618C17.243 17.6618 19.9315 14.9733 19.9315 11.7212C19.9315 10.4494 19.4212 9.27647 19.4212 7.98934C19.4136 3.61767 23.0312 0 27.4029 0C31.7746 0 35.3922 3.61767 35.3922 7.98934C35.3922 9.26885 34.8515 10.4113 34.8363 11.6679C34.7753 14.8591 37.3724 17.4562 40.5636 17.3953C41.3024 17.38 42.0107 17.182 42.7494 17.182C46.1158 17.182 48.9033 19.9695 48.9033 23.3359C48.9033 26.7022 46.1158 29.4897 42.7494 29.4897C39.3831 29.4897 36.5956 26.7022 36.5956 23.3359C36.5956 22.5971 36.8012 21.8812 36.8164 21.1424C37.0145 11.2947 17.738 10.6017 17.738 21.409C17.738 23.0312 18.492 24.5088 18.492 26.1462C18.492 31.211 14.3107 35.3922 9.246 35.3922C4.18126 35.3922 0 31.211 0 26.1462Z" fill="white"/>
<path fill-rule="evenodd" clip-rule="evenodd" d="M9.24564 14.1431C12.6272 14.1431 15.3995 11.3709 15.3995 7.9893C15.3995 4.60773 12.6272 1.83545 9.24564 1.83545C5.86407 1.83545 3.0918 4.60773 3.0918 7.9893C3.0918 11.3709 5.86407 14.1431 9.24564 14.1431Z" fill="white"/>
<path fill-rule="evenodd" clip-rule="evenodd" d="M60.7534 46.7479C64.135 46.7479 66.9073 43.9756 66.9073 40.594C66.9073 37.2125 64.135 34.4402 60.7534 34.4402C57.3719 34.4402 54.5996 37.2125 54.5996 40.594C54.5996 43.9832 57.3719 46.7479 60.7534 46.7479Z" fill="white"/>
<path fill-rule="evenodd" clip-rule="evenodd" d="M69.9998 22.4372C69.9998 27.5019 65.8185 31.6832 60.7538 31.6832C58.9183 31.6832 57.6311 30.9215 56.0089 30.9215C52.7568 30.9215 50.0683 33.6101 50.0683 36.8621C50.0683 38.134 50.5786 39.3069 50.5786 40.5941C50.5786 44.9657 46.9609 48.5834 42.5892 48.5834C38.2176 48.5834 34.5999 44.9657 34.5999 40.5941C34.5999 39.3145 35.1407 38.1721 35.1559 36.9155C35.2168 33.7243 32.6197 31.1272 29.4285 31.1881C28.6898 31.2033 27.9815 31.4014 27.2427 31.4014C23.8764 31.4014 21.0889 28.6139 21.0889 25.2475C21.0889 21.8812 23.8764 19.0937 27.2427 19.0937C30.6091 19.0937 33.3966 21.8812 33.3966 25.2475C33.3966 25.9863 33.1909 26.7022 33.1757 27.441C32.9853 37.2886 52.2541 37.9817 52.2541 27.1744C52.2541 25.5522 51.5001 24.0746 51.5001 22.4372C51.5001 17.3724 55.6814 13.1912 60.7461 13.1912C65.8185 13.1912 69.9998 17.38 69.9998 22.4372Z" fill="white"/>
</g>
<defs>
<clipPath id="clip0">
<rect width="70" height="48.5834" fill="white"/>
</clipPath>
</defs>
</svg>
